<!DOCTYPE svg PUBLIC "-//W3C//DTD SVG 20010904//EN" "http://www.w3.org/TR/2001/REC-SVG-20010904/DTD/svg10.dtd">
<svg version="1.0" xmlns="http://www.w3.org/2000/svg" width="214px" height="214px" viewBox="0 0 2140 2140" preserveAspectRatio="xMidYMid meet">
<g id="layer101" fill="#12bf13" stroke="none">
 <path d="M915 2054 c-148 -35 -207 -56 -305 -107 -213 -112 -385 -310 -470 -539 -41 -112 -55 -198 -55 -338 1 -215 50 -379 170 -560 104 -156 293 -306 466 -369 144 -52 167 -56 349 -56 183 0 235 8 359 55 348 133 595 453 633 822 52 498 -247 930 -743 1074 -53 15 -358 29 -404 18z"/>
 </g>
<g id="layer102" fill="#c0f5c1" stroke="none">
 <path d="M895 1950 c-145 -32 -263 -88 -377 -178 -223 -178 -345 -435 -339 -722 7 -358 231 -680 564 -814 440 -176 939 20 1143 449 60 126 84 236 84 388 0 260 -97 481 -285 654 -215 199 -517 284 -790 223z m192 -487 c107 -214 140 -284 243 -513 83 -184 179 -381 211 -433 35 -57 37 -72 7 -56 -63 34 -179 168 -278 323 -82 127 -174 306 -246 478 -27 65 -53 118 -59 117 -5 0 -41 -45 -80 -100 -109 -159 -228 -269 -289 -269 -24 0 -19 14 12 37 44 33 89 107 227 381 70 138 131 252 135 252 5 0 58 -98 117 -217z"/>
 </g>
<g id="layer103" fill="#fcfefc" stroke="none">
 <path d="M1005 1953 c-146 -11 -331 -78 -427 -154 -20 -16 -41 -29 -46 -29 -13 0 -133 -128 -178 -190 -77 -107 -118 -202 -149 -350 -15 -69 -23 -239 -12 -257 3 -4 8 -28 12 -53 40 -264 228 -518 473 -640 66 -33 204 -80 234 -80 9 0 19 -3 21 -7 8 -13 248 -7 307 7 186 43 333 121 453 238 112 110 202 265 243 417 27 99 27 332 0 430 -11 39 -23 74 -28 79 -4 6 -8 17 -8 25 0 21 -65 146 -95 185 -99 126 -174 196 -279 257 -121 70 -208 99 -361 119 -70 9 -85 9 -160 3z m117 -533 c76 -151 142 -286 147 -300 9 -25 99 -225 148 -330 45 -98 110 -224 142 -279 34 -56 31 -79 -8 -66 -37 11 -177 160 -242 256 -109 162 -207 345 -290 538 -28 63 -51 116 -53 118 -2 2 -34 -38 -72 -89 -107 -146 -154 -198 -210 -234 -92 -59 -149 -36 -77 30 42 38 96 131 246 427 111 220 106 211 120 207 7 -2 74 -127 149 -278z"/>
 </g>

</svg>