<!DOCTYPE svg PUBLIC "-//W3C//DTD SVG 20010904//EN" "http://www.w3.org/TR/2001/REC-SVG-20010904/DTD/svg10.dtd">
<svg version="1.0" xmlns="http://www.w3.org/2000/svg" width="233px" height="223px" viewBox="0 0 2330 2230" preserveAspectRatio="xMidYMid meet">
<g id="layer101" fill="#d30e0f" stroke="none">
 <path d="M1020 2124 c-401 -71 -715 -364 -816 -759 -25 -98 -25 -352 0 -450 56 -221 190 -427 366 -563 172 -133 335 -191 561 -199 157 -6 249 6 374 49 225 78 437 263 550 482 80 155 110 277 110 456 0 135 -8 187 -47 307 -99 313 -366 564 -693 655 -52 15 -110 21 -225 23 -85 2 -166 1 -180 -1z m-185 -432 c-21 -5 -40 12 -30 28 5 8 13 6 27 -7 18 -16 19 -18 3 -21z m755 -212 c-6 -11 -13 -20 -15 -20 -3 0 -5 9 -5 20 0 11 7 20 15 20 13 0 14 -4 5 -20z m5 -728 c-2 -3 -12 -1 -22 2 -15 6 -15 9 -3 16 13 8 35 -8 25 -18z"/>
 </g>
<g id="layer102" fill="#d03e43" stroke="none">
 <path d="M1044 2121 c7 -10 31 -9 42 2 4 4 -5 7 -20 7 -15 0 -25 -4 -22 -9z"/>
 <path d="M1261 2126 c12 -10 60 -16 54 -6 -3 5 -18 10 -32 10 -15 0 -24 -2 -22 -4z"/>
 <path d="M955 2110 l-20 -9 20 1 c11 0 31 4 45 8 l25 8 -25 0 c-14 0 -34 -3 -45 -8z"/>
 <path d="M1405 2095 c17 -8 44 -14 60 -14 24 1 21 3 -20 15 -62 17 -79 17 -40 -1z"/>
 <path d="M831 2074 c-18 -8 -31 -17 -29 -20 6 -5 78 24 78 31 0 8 -12 5 -49 -11z"/>
 <path d="M1515 2060 c3 -5 16 -10 28 -10 18 0 19 2 7 10 -20 13 -43 13 -35 0z"/>
 <path d="M735 2033 c-58 -29 -60 -31 -53 -38 6 -6 95 42 103 56 8 12 7 12 -50 -18z"/>
 <path d="M1110 2040 c-128 -10 -163 -15 -191 -31 -13 -7 -28 -12 -33 -10 -6 1 -19 -2 -30 -7 -169 -78 -245 -129 -339 -226 -53 -55 -147 -192 -147 -214 0 -7 -11 -30 -25 -50 -14 -20 -25 -48 -25 -62 0 -14 -7 -35 -14 -46 -8 -12 -15 -30 -15 -40 0 -46 -15 -145 -22 -150 -11 -6 -12 -108 -2 -118 4 -3 8 -23 9 -44 2 -20 5 -50 9 -67 3 -16 6 -40 6 -51 0 -12 6 -27 14 -34 8 -7 15 -27 15 -44 0 -20 8 -38 21 -50 13 -11 19 -25 16 -37 -3 -10 -1 -17 4 -13 5 3 9 -3 9 -14 0 -10 9 -29 20 -42 11 -13 20 -28 20 -33 0 -14 68 -103 116 -152 49 -49 124 -109 124 -99 0 5 7 -2 16 -14 8 -12 20 -22 26 -22 6 0 19 -7 28 -15 10 -9 27 -17 39 -20 11 -2 42 -15 69 -28 49 -26 136 -55 162 -55 25 -1 104 -12 120 -18 28 -10 274 19 310 36 19 10 40 15 47 13 13 -5 142 55 158 73 6 7 28 20 50 30 51 23 210 182 260 259 47 74 92 172 113 245 23 83 33 268 20 395 -9 90 -58 235 -79 235 -5 0 -8 4 -5 8 7 11 -43 105 -61 115 -7 5 -11 12 -8 17 3 5 -4 14 -16 20 -11 7 -19 14 -16 16 5 5 -75 87 -152 157 -49 44 -106 81 -141 92 -14 4 -27 11 -30 14 -10 13 -90 44 -97 38 -3 -4 -17 0 -31 9 -25 17 -34 18 -188 36 -22 3 -82 2 -134 -2z m50 -665 c0 -2 24 -27 52 -55 61 -60 57 -60 152 25 83 75 122 105 135 105 13 0 63 30 72 43 4 5 12 8 19 5 9 -3 2 -16 -19 -40 -17 -20 -31 -41 -31 -47 0 -6 -4 -11 -8 -11 -5 0 -14 -10 -21 -22 -27 -54 -76 -121 -123 -170 -37 -37 -49 -68 -28 -68 6 0 10 -7 10 -16 0 -8 4 -13 9 -9 5 3 13 -5 17 -17 3 -13 20 -39 35 -59 16 -20 29 -42 29 -49 0 -6 5 -8 10 -5 6 4 13 -7 16 -24 4 -17 10 -28 15 -25 5 3 9 0 9 -6 0 -18 61 -142 77 -159 11 -10 12 -16 4 -19 -6 -2 -24 9 -39 25 -16 15 -50 45 -77 66 -26 20 -45 37 -41 37 4 0 -34 41 -85 90 -51 50 -96 90 -100 90 -4 0 -23 -18 -42 -40 -19 -22 -37 -40 -41 -40 -4 0 -19 -13 -33 -30 -13 -16 -29 -30 -35 -30 -6 0 -28 -14 -51 -32 -41 -33 -75 -54 -134 -85 -18 -9 -33 -20 -33 -25 0 -4 -11 -8 -24 -8 -13 0 -26 -6 -29 -12 -2 -7 -8 -10 -12 -6 -5 5 -1 16 8 26 10 10 17 24 17 31 0 7 4 10 8 7 9 -5 52 46 52 62 0 6 11 17 25 26 14 9 25 25 25 36 0 11 5 20 12 20 11 0 28 18 106 109 20 24 50 57 65 72 l29 28 -25 23 c-13 13 -26 28 -28 34 -4 13 -63 87 -91 116 -10 10 -18 22 -18 28 0 5 -13 24 -28 42 -16 18 -38 52 -50 76 -12 24 -31 53 -42 64 -11 12 -17 25 -14 30 3 5 -2 18 -12 29 -9 10 -19 31 -20 45 -2 14 -11 32 -20 38 -9 7 -14 18 -10 24 4 7 77 -59 181 -164 96 -97 175 -177 175 -179z"/>
 <path d="M1580 2036 c19 -17 65 -33 56 -18 -3 5 -21 15 -38 21 -29 10 -31 10 -18 -3z"/>
 <path d="M1650 2003 c0 -5 17 -17 38 -28 20 -10 47 -28 59 -39 13 -11 25 -17 29 -14 5 6 -24 28 -88 67 -21 12 -38 19 -38 14z"/>
 <path d="M586 1939 c-37 -28 -65 -54 -61 -57 3 -4 9 -2 13 3 13 18 100 85 111 85 5 0 13 5 16 10 14 22 -16 7 -79 -41z"/>
 <path d="M477 1845 c-15 -14 -27 -29 -27 -32 0 -4 14 6 30 22 28 26 34 35 27 35 -1 0 -15 -11 -30 -25z"/>
 <path d="M414 1778 c-48 -56 -56 -68 -47 -68 5 0 23 20 41 45 34 49 37 58 6 23z"/>
 <path d="M1930 1775 c0 -5 11 -23 25 -40 13 -16 24 -25 24 -20 0 6 -11 24 -24 40 -14 17 -25 26 -25 20z"/>
 <path d="M321 1651 c-17 -28 -27 -51 -23 -51 10 0 66 90 59 96 -2 3 -19 -18 -36 -45z"/>
 <path d="M2000 1673 c6 -17 21 -39 32 -50 21 -17 21 -16 -2 22 -32 55 -42 65 -30 28z"/>
 <path d="M281 1572 c-17 -31 -13 -40 5 -14 9 13 14 26 11 29 -3 2 -10 -4 -16 -15z"/>
 <path d="M2060 1563 c0 -5 7 -18 15 -29 13 -18 14 -18 8 4 -5 22 -23 41 -23 25z"/>
 <path d="M2121 1405 c0 -16 6 -43 14 -60 l14 -30 -6 40 c-3 22 -9 49 -14 60 -6 17 -8 15 -8 -10z"/>
 <path d="M190 1288 c0 -18 -2 -58 -5 -88 -4 -48 -3 -45 9 20 18 94 18 100 6 100 -5 0 -10 -15 -10 -32z"/>
 <path d="M2151 1145 c-1 -57 3 -95 9 -95 13 0 13 177 1 184 -5 4 -10 -34 -10 -89z"/>
 <path d="M188 1023 c2 -32 9 -62 14 -68 6 -6 7 11 3 50 -9 78 -23 93 -17 18z"/>
 <path d="M2130 924 c-12 -32 -13 -61 -1 -48 10 10 23 74 16 74 -3 0 -10 -12 -15 -26z"/>
 <path d="M201 923 c0 -4 4 -17 9 -28 8 -19 9 -19 9 2 1 12 -3 25 -9 28 -5 3 -10 3 -9 -2z"/>
 <path d="M220 860 c1 -8 7 -28 15 -45 l14 -30 -6 35 c-6 36 -23 67 -23 40z"/>
 <path d="M2090 785 c-6 -15 -8 -30 -6 -33 3 -3 10 8 16 23 6 15 8 30 6 33 -3 3 -10 -8 -16 -23z"/>
 <path d="M282 703 c26 -53 44 -83 51 -83 9 0 -9 36 -23 45 -6 3 -10 15 -10 26 0 10 -5 19 -11 19 -5 0 -9 -3 -7 -7z"/>
 <path d="M2023 648 c-21 -36 -34 -68 -29 -68 8 0 58 92 53 96 -2 3 -13 -10 -24 -28z"/>
 <path d="M390 529 c12 -16 24 -28 27 -25 6 6 -29 55 -40 56 -5 0 1 -14 13 -31z"/>
 <path d="M1939 528 c-26 -29 -36 -48 -25 -48 2 0 19 18 36 40 38 48 31 53 -11 8z"/>
 <path d="M1820 400 c0 -6 -28 -28 -62 -50 -33 -22 -55 -40 -48 -40 7 0 34 16 60 35 55 40 78 65 61 65 -6 0 -11 -5 -11 -10z"/>
 <path d="M560 360 c58 -46 101 -73 107 -67 3 4 -3 10 -13 13 -10 4 -38 22 -61 41 -23 18 -45 33 -50 33 -4 0 3 -9 17 -20z"/>
 <path d="M1636 276 c-26 -14 -53 -29 -59 -35 -6 -6 -20 -11 -32 -11 -12 0 -30 -7 -41 -15 -10 -8 -29 -15 -41 -15 -12 0 -25 -4 -28 -10 -9 -14 -4 -13 67 12 61 21 163 71 183 89 14 14 5 11 -49 -15z"/>
 <path d="M736 250 c6 -6 35 -20 64 -31 43 -16 51 -17 41 -5 -8 9 -23 16 -35 16 -12 0 -31 7 -42 15 -22 17 -43 20 -28 5z"/>
 <path d="M880 190 c14 -4 32 -8 40 -9 13 -1 13 0 0 9 -8 5 -26 9 -40 9 l-25 -1 25 -8z"/>
 <path d="M955 170 c28 -12 37 -12 30 0 -3 6 -16 10 -28 9 -21 0 -21 -1 -2 -9z"/>
 <path d="M1030 159 c0 -5 14 -9 31 -9 16 0 28 4 25 9 -3 5 -17 9 -31 9 -14 0 -25 -4 -25 -9z"/>
 <path d="M1265 160 c-3 -6 5 -10 19 -10 14 0 28 5 31 10 3 6 -5 10 -19 10 -14 0 -28 -4 -31 -10z"/>
 <path d="M1143 153 c20 -2 54 -2 75 0 20 2 3 4 -38 4 -41 0 -58 -2 -37 -4z"/>
 </g>
<g id="layer103" fill="#e6837e" stroke="none">
 <path d="M1048 2034 c-4 -4 -15 -7 -25 -8 -36 -4 -98 -18 -118 -26 -83 -36 -119 -50 -127 -50 -5 0 -21 -8 -36 -19 -15 -10 -52 -35 -82 -54 -103 -67 -224 -202 -281 -315 -126 -244 -139 -547 -33 -767 13 -28 24 -54 24 -59 0 -20 112 -175 167 -230 99 -101 285 -211 400 -237 86 -19 107 -22 216 -26 125 -6 227 12 339 57 40 17 76 30 81 30 18 0 178 118 235 174 138 135 237 334 260 521 16 135 0 298 -40 400 -35 88 -39 100 -40 105 0 6 -31 63 -38 70 -3 3 -22 30 -43 61 -119 175 -367 333 -574 366 -59 9 -278 15 -285 7z m179 -726 c16 -21 31 -38 34 -38 3 0 19 12 37 28 17 15 52 43 77 62 26 19 61 47 80 63 18 15 36 27 39 27 4 0 24 12 46 26 21 14 44 24 50 22 14 -4 -75 -140 -162 -247 -67 -82 -78 -104 -58 -116 10 -6 132 -190 143 -215 4 -8 11 -22 16 -30 5 -8 12 -22 16 -30 3 -8 16 -35 29 -60 13 -25 20 -46 15 -48 -11 -5 -118 91 -234 207 -50 50 -94 91 -98 91 -5 0 -43 -31 -85 -68 -43 -38 -113 -93 -157 -122 -44 -30 -92 -62 -107 -72 -15 -10 -32 -18 -38 -18 -6 0 -19 -5 -30 -12 -26 -16 -37 -3 -17 20 10 10 17 23 17 28 0 14 131 167 291 340 l20 21 -91 114 c-51 63 -94 121 -98 129 -3 8 -21 37 -39 64 -19 28 -50 84 -69 125 -19 42 -40 84 -45 94 -5 10 -7 23 -3 29 7 11 371 -347 421 -414z"/>
 <path d="M2163 1145 c0 -44 2 -61 4 -37 2 23 2 59 0 80 -2 20 -4 1 -4 -43z"/>
 <path d="M182 1180 c0 -19 2 -27 5 -17 2 9 2 25 0 35 -3 9 -5 1 -5 -18z"/>
 <path d="M226 840 c3 -14 11 -32 16 -40 6 -10 7 -7 2 10 -3 14 -11 32 -16 40 -6 10 -7 7 -2 -10z"/>
 <path d="M1785 364 l-40 -36 43 32 c36 27 49 40 40 40 -2 0 -21 -16 -43 -36z"/>
 </g>
<g id="layer104" fill="#f8bec4" stroke="none">
 <path d="M1100 2037 c-3 -3 -30 -7 -60 -10 -71 -7 -177 -40 -265 -84 -76 -38 -205 -131 -245 -177 -98 -113 -105 -124 -169 -254 -23 -45 -46 -103 -51 -130 -5 -26 -13 -60 -17 -77 -12 -50 -8 -316 5 -365 38 -137 104 -275 169 -352 119 -143 230 -226 365 -274 40 -14 82 -30 93 -34 101 -42 350 -47 465 -10 19 6 46 13 60 16 38 8 139 54 195 89 112 71 245 206 305 310 89 154 140 400 116 555 -4 25 -9 62 -12 83 -4 20 -10 40 -15 43 -5 3 -9 17 -9 32 0 30 -66 172 -117 249 -42 65 -140 165 -215 221 -59 43 -205 118 -248 126 -14 3 -41 10 -60 16 -19 6 -48 13 -65 16 -58 8 -220 16 -225 11z m-100 -487 c74 -74 163 -166 197 -205 l61 -69 38 28 c22 15 64 47 94 72 82 66 152 112 183 119 24 6 26 5 20 -11 -3 -11 -17 -33 -30 -50 -13 -17 -23 -35 -23 -41 0 -6 -10 -22 -22 -36 -13 -14 -45 -56 -73 -93 -27 -37 -58 -74 -67 -83 -10 -8 -18 -19 -18 -23 0 -5 24 -41 53 -81 55 -75 137 -207 137 -221 0 -4 9 -21 21 -37 11 -16 18 -29 14 -29 -3 0 -1 -9 5 -20 22 -41 -33 -14 -98 48 -15 15 -69 66 -119 113 -49 47 -95 94 -101 104 -9 18 -15 15 -67 -30 -85 -75 -216 -175 -250 -191 -16 -8 -43 -23 -60 -33 -43 -28 -85 -37 -85 -19 0 14 11 29 93 127 21 25 55 66 75 91 20 24 65 74 100 109 34 36 62 70 62 76 0 9 -32 52 -105 142 -15 18 -38 50 -52 70 -14 21 -29 40 -32 43 -4 3 -21 30 -37 60 -17 30 -40 72 -53 94 -30 53 -61 137 -55 148 7 12 23 -2 194 -172z"/>
 </g>
<g id="layer105" fill="#fefcfc" stroke="none">
 <path d="M1125 2030 c-4 -6 -28 -10 -53 -10 -99 3 -313 -81 -427 -169 -82 -62 -157 -141 -210 -222 -25 -37 -45 -70 -45 -75 0 -4 -7 -15 -15 -24 -9 -10 -17 -27 -20 -38 -2 -11 -9 -31 -16 -44 -7 -13 -12 -26 -11 -30 1 -3 -6 -30 -15 -60 -9 -29 -15 -59 -14 -67 1 -7 -1 -20 -4 -30 -10 -24 -5 -213 7 -279 5 -31 11 -69 13 -84 2 -15 10 -37 19 -50 9 -12 16 -32 16 -45 0 -12 4 -25 10 -28 5 -3 21 -29 35 -58 32 -63 95 -149 147 -199 21 -20 38 -42 38 -49 0 -7 3 -10 6 -6 4 3 33 -14 65 -39 113 -87 327 -170 425 -165 23 1 45 -2 49 -8 8 -14 92 -14 100 0 4 6 22 8 41 6 18 -3 52 2 75 9 22 8 44 12 48 9 13 -8 187 70 265 119 83 52 216 185 270 270 45 71 97 198 115 281 7 33 16 71 20 85 12 44 2 212 -19 300 -26 114 -58 194 -114 279 -25 40 -46 75 -46 80 0 4 -18 22 -40 40 -23 18 -37 37 -34 43 4 6 3 8 -3 5 -5 -3 -26 14 -47 39 -20 24 -41 42 -45 39 -5 -2 -16 4 -26 15 -10 11 -23 20 -29 20 -6 0 -27 11 -46 24 -45 30 -203 92 -255 100 -22 3 -59 6 -82 6 -23 -1 -44 4 -48 10 -8 13 -92 13 -100 0z m-102 -490 c109 -111 202 -212 207 -225 5 -13 15 -22 23 -21 16 2 57 27 78 48 29 28 97 78 106 78 5 0 24 13 43 30 19 16 39 29 43 30 5 0 20 9 34 20 14 11 30 20 34 20 15 0 10 -47 -6 -60 -8 -7 -13 -16 -10 -20 3 -5 -3 -15 -14 -22 -11 -8 -23 -26 -26 -40 -4 -14 -20 -38 -36 -54 -16 -15 -29 -33 -29 -39 0 -6 -22 -35 -50 -64 -27 -29 -50 -56 -50 -59 0 -4 29 -47 65 -97 104 -145 192 -335 155 -335 -6 0 -30 20 -54 45 -25 25 -48 45 -53 45 -4 0 -30 23 -58 51 -27 28 -58 55 -67 60 -10 5 -18 14 -18 20 0 13 -72 79 -86 79 -6 0 -24 -13 -40 -30 -16 -16 -35 -30 -42 -30 -7 0 -15 -7 -18 -15 -9 -22 -151 -127 -218 -161 -31 -16 -71 -36 -89 -45 -17 -10 -35 -15 -39 -12 -15 9 -8 43 12 55 11 7 20 17 20 23 1 5 21 35 45 65 24 30 57 72 72 92 15 21 34 38 41 38 6 0 12 6 12 13 0 14 97 117 110 117 28 0 12 30 -61 122 -44 56 -85 113 -90 126 -5 13 -17 31 -26 40 -19 19 -73 105 -90 142 -6 14 -21 46 -32 71 -23 51 -28 99 -8 99 6 0 101 -90 210 -200z"/>
 </g>

</svg>